<svg width="42" height="42" viewBox="0 0 42 42" fill="none" xmlns="http://www.w3.org/2000/svg">
<path d="M31.5 5.25H10.5C6.63401 5.25 3.5 8.38401 3.5 12.25V29.75C3.5 33.616 6.63401 36.75 10.5 36.75H31.5C35.366 36.75 38.5 33.616 38.5 29.75V12.25C38.5 8.38401 35.366 5.25 31.5 5.25Z" fill="#19348D" fill-opacity="0.19"/>
<path fill-rule="evenodd" clip-rule="evenodd" d="M17.4013 3.9375H17.5H24.5H24.5987C27.8148 3.93748 30.3622 3.93745 32.3558 4.2055C34.4075 4.48135 36.0682 5.06254 37.3779 6.37219C38.6874 7.68182 39.2686 9.34248 39.5446 11.3942C39.8125 13.3878 39.8125 15.9352 39.8125 19.1511V19.1513V19.25V22.75V22.8487V22.8489C39.8125 26.0648 39.8125 28.6122 39.5446 30.6058C39.2686 32.6574 38.6874 34.3182 37.3779 35.6279C36.0682 36.9374 34.4075 37.5186 32.3558 37.7946C30.3622 38.0625 27.8148 38.0625 24.5989 38.0625H24.5987H24.5H17.5H17.4013H17.4012C14.1851 38.0625 11.6378 38.0625 9.64422 37.7946C7.59246 37.5186 5.93182 36.9374 4.62217 35.6279C3.31254 34.3182 2.73133 32.6574 2.45548 30.6058C2.18745 28.6122 2.18747 26.0648 2.1875 22.8487V22.75V19.25V19.1513C2.18747 15.9352 2.18745 13.3878 2.45548 11.3942C2.73133 9.34248 3.31254 7.68182 4.62217 6.37219C5.93182 5.06254 7.59246 4.48135 9.64422 4.2055C11.6378 3.93745 14.1852 3.93748 17.4013 3.9375ZM9.99399 6.80708C8.23333 7.0438 7.21894 7.48773 6.47833 8.22834C5.73771 8.96896 5.29379 9.98333 5.05708 11.744C4.81528 13.5424 4.8125 15.9131 4.8125 19.25V22.75C4.8125 26.0869 4.81528 28.4576 5.05708 30.2561C5.29379 32.0166 5.73771 33.0311 6.47833 33.7717C7.21894 34.5123 8.23333 34.9563 9.99399 35.1929C11.7924 35.4347 14.1631 35.4375 17.5 35.4375H24.5C27.8369 35.4375 30.2076 35.4347 32.0061 35.1929C33.7666 34.9563 34.7811 34.5123 35.5217 33.7717C36.2623 33.0311 36.7063 32.0166 36.9429 30.2561C37.1847 28.4576 37.1875 26.0869 37.1875 22.75V19.25C37.1875 15.9131 37.1847 13.5424 36.9429 11.744C36.7063 9.98333 36.2623 8.96896 35.5217 8.22834C34.7811 7.48773 33.7666 7.0438 32.0061 6.80708C30.2076 6.5653 27.8369 6.5625 24.5 6.5625H17.5C14.1631 6.5625 11.7924 6.5653 9.99399 6.80708ZM11.3219 16.5719C11.8345 16.0594 12.6655 16.0594 13.1781 16.5719L18.4282 21.822C18.6742 22.0682 18.8127 22.4021 18.8127 22.7502C18.8127 23.0982 18.6742 23.432 18.4282 23.6782L13.178 28.9284C12.6654 29.4408 11.8344 29.4408 11.3218 28.9282C10.8092 28.4158 10.8093 27.5847 11.3218 27.0721L15.6439 22.7502L11.3219 18.428C10.8094 17.9155 10.8094 17.0845 11.3219 16.5719ZM22.75 26.6875C22.0252 26.6875 21.4375 27.2752 21.4375 28C21.4375 28.7248 22.0252 29.3125 22.75 29.3125H29.75C30.4748 29.3125 31.0625 28.7248 31.0625 28C31.0625 27.2752 30.4748 26.6875 29.75 26.6875H22.75Z" fill="#19348D"/>
</svg>
