<svg width="183" height="75" viewBox="0 0 183 75" fill="none" xmlns="http://www.w3.org/2000/svg">
<g clip-path="url(#clip0)">
<path d="M168.845 52.5306C168.357 52.5306 168.021 52.1922 168.021 51.7054V27.526H159.807C159.319 27.526 158.982 27.189 158.982 26.7017V23.3664C158.982 22.878 159.319 22.5401 159.807 22.5401H181.671C182.159 22.5401 182.495 22.8784 182.495 23.3664V26.7015C182.495 27.1885 182.159 27.526 181.671 27.526H173.458V51.705C173.458 52.1922 173.12 52.5306 172.633 52.5306H168.845ZM105.926 40.4589L101.614 28.089L97.2634 40.4589H105.926ZM115.489 51.5536C115.677 52.0422 115.377 52.5306 114.851 52.5306H110.952C110.389 52.5306 110.051 52.269 109.863 51.7417L107.652 45.3711H95.5397L93.3242 51.7417C93.1381 52.2692 92.7993 52.5306 92.2379 52.5306H88.564C88.0758 52.5306 87.7377 52.042 87.9254 51.5536L98.0881 23.2914C98.2762 22.7649 98.6135 22.5414 99.1749 22.5414H104.2C104.763 22.5414 105.138 22.7651 105.326 23.2914L115.489 51.5536ZM144.619 48.4812C147.018 48.4812 148.631 47.321 149.944 45.3333L143.87 38.8097C141.544 40.1228 140.043 41.4331 140.043 44.058C140.043 46.6451 142.142 48.4812 144.619 48.4812ZM146.306 26.5136C144.357 26.5136 143.232 27.7519 143.232 29.401C143.232 30.6754 143.905 31.8002 145.443 33.45C148.106 31.912 149.231 30.9753 149.231 29.3264C149.231 27.7882 148.257 26.5136 146.306 26.5136ZM162.921 51.4808C163.407 52.0061 163.108 52.5306 162.506 52.5306H157.744C157.107 52.5306 156.769 52.3799 156.357 51.8921L153.507 48.7445C151.594 51.2938 148.93 53.2051 144.505 53.2051C139.031 53.2051 134.717 49.9065 134.717 44.247C134.717 39.8971 137.043 37.5724 140.569 35.6235C138.842 33.6368 138.056 31.5374 138.056 29.7015C138.056 25.0518 141.319 21.866 146.23 21.866C151.256 21.866 154.331 24.8285 154.331 29.2136C154.331 32.9623 151.632 35.0597 148.781 36.6354L152.982 41.1728L155.344 37.0477C155.643 36.5611 155.981 36.373 156.58 36.373H160.217C160.818 36.373 161.156 36.7864 160.782 37.4233L156.581 44.6197L162.921 51.4808ZM125.495 52.5306C125.983 52.5306 126.322 52.1922 126.322 51.7054V27.526H134.533C135.021 27.526 135.358 27.189 135.358 26.7017V23.3664C135.358 22.878 135.021 22.5401 134.533 22.5401H112.669C112.181 22.5401 111.844 22.8784 111.844 23.3664V26.7015C111.844 27.1885 112.181 27.526 112.669 27.526H120.881V51.705C120.881 52.1922 121.22 52.5306 121.706 52.5306H125.495Z" fill="black"/>
<path d="M14.5096 67.1157C20.8695 72.0388 28.8523 74.9968 37.5132 74.9968C46.9911 74.9968 55.6316 71.4779 62.2259 65.7017C62.3058 65.6311 62.2664 65.5844 62.1876 65.6311C59.2285 67.6073 50.7947 71.9213 37.5136 71.9213C25.9716 71.9213 18.6776 69.3461 14.5585 67.0469C14.4797 67.008 14.4505 67.0671 14.5096 67.1157ZM40.0596 69.0324C49.291 69.0324 59.4352 66.516 65.5023 61.5346C67.1625 60.1774 68.744 58.371 70.1603 55.9434C70.9757 54.5466 71.7731 52.887 72.4226 51.2558C72.4515 51.1762 72.4024 51.1376 72.3426 51.227C66.7006 59.5297 50.3627 64.7085 33.493 64.7085C21.5689 64.7085 8.73869 60.8953 3.71558 53.6144C3.66614 53.5471 3.61669 53.576 3.6468 53.6533C8.32618 63.5992 22.5223 69.0324 40.0596 69.0324ZM29.9734 52.5327C10.7739 52.5327 1.72089 43.5907 0.078696 37.4884C0.0584445 37.4001 0.000244141 37.4194 0.000244141 37.4988C0.000244141 39.5531 0.205861 42.2043 0.559624 43.964C0.728387 44.8205 1.42551 46.1648 2.44758 47.2363C7.09667 52.0823 18.6875 58.8726 38.7609 58.8726C66.1102 58.8726 72.3635 49.7623 73.6405 46.7663C74.5536 44.6237 75.0267 40.7516 75.0267 37.499C75.0267 36.7119 75.007 36.0832 74.9773 35.466C74.9773 35.3658 74.9192 35.3576 74.8992 35.4552C73.5325 42.7861 50.1657 52.5327 29.9734 52.5327ZM3.61669 21.4121C2.51654 23.5955 1.29707 27.2789 0.934551 29.1853C0.775641 30.0021 0.843328 30.3943 1.12977 31.0039C3.43096 35.8863 15.0709 43.6983 42.2221 43.6983C58.7864 43.6983 71.654 39.6288 73.7386 32.2027C74.1225 30.8357 74.1431 29.3923 73.65 27.4475C73.099 25.2742 72.0671 22.7398 71.1937 20.9602C71.1649 20.9022 71.114 20.9108 71.1244 20.9794C71.4487 30.7195 44.2867 36.9969 30.5819 36.9969C15.7371 36.9969 3.35251 31.0823 3.35251 23.6141C3.35251 22.8965 3.50102 22.1788 3.68639 21.4318C3.705 21.3636 3.64661 21.3523 3.61669 21.4121ZM62.2867 9.45333C62.4443 9.70037 62.5229 9.964 62.5229 10.3189C62.5229 14.4852 49.7716 21.8557 29.4732 21.8557C14.5585 21.8557 11.7662 16.3228 11.7662 12.8041C11.7662 11.5464 12.2486 10.2594 13.311 8.95234C13.369 8.87461 13.3197 8.84469 13.2528 8.90253C11.3152 10.5445 9.53489 12.3922 7.97315 14.3867C7.22694 15.3299 6.76371 16.1655 6.76371 16.6662C6.76371 23.958 25.0477 29.2449 42.1439 29.2449C60.36 29.2449 68.4898 23.2983 68.4898 18.0723C68.4898 16.2046 67.7628 15.1143 65.9029 13.0005C64.6957 11.6254 63.5537 10.5057 62.345 9.40353C62.2867 9.35536 62.246 9.39459 62.2867 9.45333ZM56.7022 5.2879C51.0803 1.91812 44.5518 0.000976562 37.5136 0.000976562C30.4263 0.000976562 23.7011 1.98508 18.059 5.44408C16.3666 6.48566 15.414 7.32035 15.414 8.39332C15.414 11.5562 22.8058 14.957 35.9199 14.957C48.8978 14.957 58.9638 11.232 58.9638 7.64639C58.9638 6.79053 58.2157 6.19174 56.7022 5.2879Z" fill="#00A8E0"/>
</g>
<defs>
<clipPath id="clip0">
<rect width="182.495" height="75" fill="white"/>
</clipPath>
</defs>
</svg>
