<svg width="295" height="59" viewBox="0 0 295 59" fill="none" xmlns="http://www.w3.org/2000/svg">
<g clip-path="url(#clip0)">
<path d="M285.465 24.2772H283.653V23.6328H288.027V24.2772H286.214V29.0376H285.465V24.2772Z" fill="#050606"/>
<path d="M293.754 24.1644H293.73L291.998 29.0376H291.297L289.565 24.1644H289.549V29.0376H288.808V23.6328H290.145L291.7 28.0791H291.724L293.246 23.6328H294.495V29.0376H293.754V24.1644Z" fill="#050606"/>
<path d="M207.197 42.5454V15.7068H212.956V38.083H224.595V42.5454H207.197Z" fill="#050606"/>
<path d="M227.906 15.7068H233.85V20.5074H227.906V15.7068ZM228.083 23.8905H233.665V42.5454H228.083V23.8905Z" fill="#050606"/>
<path d="M244.547 26.0411L244.619 26.1539C245.779 24.4463 247.527 23.3267 250.354 23.3267C252.207 23.3267 255.815 24.696 256.484 27.4104C256.782 28.5623 256.855 29.7544 256.855 30.3907V42.5454H251.273V31.3251C251.24 29.3114 250.677 27.056 247.93 27.056C246.182 27.056 244.66 28.6187 244.587 31.3251V42.5454H239.013V23.8905H244.555V26.0411" fill="#050606"/>
<path d="M267.817 31.4378L267.89 31.5103L273.399 23.673H279.601L273.174 31.8405L280.012 42.5454H273.504L267.89 32.3238L267.817 32.4044V42.5454H262.243V15.7068H267.817V31.4378Z" fill="#050606"/>
<path d="M92.2953 22.626C92.1101 20.0565 89.3553 18.3489 86.6086 18.3489C79.9876 18.3489 78.7633 24.4141 78.7633 29.1342C78.7633 34.6759 80.4387 39.9115 86.2784 39.9115C89.1378 39.9115 91.7395 38.502 92.1826 35.6345H96.0811C95.7106 40.1371 91.1757 43.1012 85.9401 43.1012C78.0222 43.1012 74.8647 36.6332 74.8647 29.1262C74.8647 22.5454 77.7564 14.8853 86.7536 15.1431C91.9248 15.288 95.7992 17.8253 96.1938 22.6179H92.2953" fill="#050606"/>
<path d="M102.613 33.8865C102.355 37.1567 103.693 40.5398 107.293 40.5398C110.048 40.5398 111.417 39.4685 111.836 36.754H115.549C114.985 40.9908 111.723 43.1092 107.261 43.1092C101.276 43.1092 98.8999 38.8724 98.8999 33.371C98.8999 27.9018 101.647 23.3347 107.559 23.3347C113.133 23.4475 115.775 26.9755 115.775 32.1386V33.8865H102.613ZM112.061 31.4378C112.134 28.3126 110.716 25.8961 107.301 25.8961C104.361 25.8961 102.621 28.3851 102.621 31.4378H112.061Z" fill="#050606"/>
<path d="M122.855 26.6372H122.927C124.12 24.2932 126.721 23.3347 128.582 23.3347C129.887 23.3347 135.654 23.673 135.654 29.6577V42.5535H132.118V30.8015C132.118 27.7165 130.821 26.0411 127.841 26.0411C127.841 26.0411 125.908 25.9284 124.426 27.4185C123.902 27.934 122.935 28.7636 122.935 32.4044V42.5454H119.399V23.8905H122.863V26.6372" fill="#050606"/>
<path d="M141.228 23.8826V19.9116L144.756 18.792V23.8826H149.073V26.444H144.756V38.4296C144.756 39.7667 145.803 40.395 147.068 40.395C147.624 40.395 148.365 40.3225 148.92 40.1775V42.8919C148.107 42.9322 147.326 43.1175 146.512 43.1175C145.65 43.1175 144.982 43.0853 144.128 42.9403C143.572 42.8275 142.638 42.5295 142.042 41.7079C141.405 40.8138 141.22 40.7494 141.22 38.2524V26.444H138.03V23.8826H141.228Z" fill="#050606"/>
<path d="M164.595 23.8904H168.123V42.5453H164.667V39.7986H164.595C163.177 42.1345 160.801 43.1011 158.199 43.1011C154.293 43.1011 152.062 40.1288 152.062 36.3753V23.8904H155.598V34.9255C155.598 38.1635 156.339 40.5396 159.722 40.5396C161.171 40.5396 163.137 39.8067 163.886 37.8654C164.555 36.1256 164.595 33.9267 164.595 33.4756V23.8904Z" fill="#050606"/>
<path d="M176.371 42.5455H172.843V23.8906H176.371V27.4911H176.452C176.967 24.9296 179.343 23.6248 181.913 23.6248C182.356 23.6248 182.735 23.6731 183.137 23.6731V27.0158C182.654 26.8306 182.098 26.8306 181.615 26.8306C177.153 26.9756 176.371 29.3517 176.371 33.2986V42.5455Z" fill="#050606"/>
<path d="M193.584 49.6899H189.976L192.803 42.4808L185.038 23.8904H188.969L194.809 38.6065L200.769 23.8904H204.547L193.584 49.6899Z" fill="#050606"/>
<path d="M5.71436 45.9607C7.64751 48.6993 10.0398 51.0916 12.7784 53.0328L22.4281 36.311L5.71436 45.9607Z" fill="#8CC643"/>
<path d="M12.7784 5.21143C10.0398 7.14458 7.64751 9.54491 5.71436 12.2755L22.4361 21.9251L12.7784 5.21143Z" fill="#8CC643"/>
<path d="M41.9045 2.58559C38.9162 1.19211 35.6701 0.306082 32.2549 0V19.2993L41.9045 2.58559Z" fill="#8CC643"/>
<path d="M17.3291 55.6588C20.3174 57.0442 23.5635 57.9383 26.9868 58.2524V38.9451L17.3291 55.6588Z" fill="#8CC643"/>
<path d="M53.5272 12.2835C51.594 9.54491 49.2018 7.14458 46.4631 5.21948L36.8135 21.9332L53.5272 12.2835Z" fill="#8CC643"/>
<path d="M46.4631 53.0328C49.2018 51.0996 51.594 48.6993 53.5352 45.9607L36.8135 36.311L46.4631 53.0328Z" fill="#8CC643"/>
<path d="M58.7468 26.4922C58.4407 23.0689 57.5466 19.8147 56.1693 16.8345L39.4395 26.4922H58.7468Z" fill="#0C8544"/>
<path d="M0.494629 31.752C0.800711 35.1833 1.69479 38.4294 3.07216 41.4016L19.802 31.752H0.494629Z" fill="#0C8544"/>
<path d="M3.07216 16.8345C1.69479 19.8147 0.800711 23.0689 0.494629 26.4922H19.802L3.07216 16.8345Z" fill="#0C8544"/>
<path d="M39.4395 31.752L56.1612 41.4016C57.5386 38.4294 58.4327 35.1833 58.7387 31.752H39.4395Z" fill="#0C8544"/>
<path d="M26.9868 0C23.5635 0.298027 20.3174 1.19211 17.3291 2.58559L26.9868 19.2993V0Z" fill="#0C8544"/>
<path d="M32.2549 58.2524C35.6782 57.9463 38.9243 57.0522 41.9126 55.6588L32.2549 38.9451V58.2524Z" fill="#0C8544"/>
<path d="M51.8441 0.644384H50.0317V0H54.4055V0.644384H52.5932V5.39671H51.8441V0.644384Z" fill="#0C8544"/>
<path d="M60.1322 0.531616H60.1161L58.3843 5.39671H57.6835L55.9517 0.531616H55.9356V5.39671H55.1865V0H56.5317L58.0862 4.44625H58.1024L59.6247 0H60.8813V5.39671H60.1322V0.531616Z" fill="#0C8544"/>
</g>
<defs>
<clipPath id="clip0">
<rect width="294" height="58.2523" fill="white" transform="translate(0.494629)"/>
</clipPath>
</defs>
</svg>
