<svg width="48" height="48" viewBox="0 0 48 48" fill="none" xmlns="http://www.w3.org/2000/svg">
<path d="M36 8H12C7.58172 8 4 11.5817 4 16V32C4 36.4183 7.58172 40 12 40H36C40.4183 40 44 36.4183 44 32V16C44 11.5817 40.4183 8 36 8Z" fill="#19348D" fill-opacity="0.2"/>
<path fill-rule="evenodd" clip-rule="evenodd" d="M20 6.5H19.8872C16.2116 6.49996 13.3004 6.49994 11.022 6.80626C8.67712 7.12152 6.77922 7.78576 5.28248 9.28248C3.78576 10.7792 3.12152 12.6771 2.80628 15.022C2.49994 17.3004 2.49996 20.2116 2.5 23.8872V24V24.1128C2.49996 27.7884 2.49994 30.6996 2.80628 32.978C3.12152 35.3228 3.78576 37.2208 5.28248 38.7176C6.77922 40.2142 8.67712 40.8784 11.022 41.1938C13.3004 41.5 16.2116 41.5 19.8871 41.5H19.8872H20H28H28.1128H28.113C31.7884 41.5 34.6996 41.5 36.978 41.1938C39.3228 40.8784 41.2208 40.2142 42.7176 38.7176C44.2142 37.2208 44.8784 35.3228 45.1938 32.978C45.5 30.6996 45.5 27.7884 45.5 24.113V24.1128V24V23.8872V23.887C45.5 20.2116 45.5 17.3004 45.1938 15.022C44.8784 12.6771 44.2142 10.7792 42.7176 9.28248C41.2208 7.78576 39.3228 7.12152 36.978 6.80626C34.6996 6.49994 31.7884 6.49996 28.1128 6.5H28H20ZM7.4038 11.4038C8.25022 10.5574 9.40952 10.05 11.4217 9.77952C13.477 9.50318 16.1864 9.5 20 9.5H28C31.8136 9.5 34.523 9.50318 36.5784 9.77952C38.5904 10.05 39.7498 10.5574 40.5962 11.4038C41.4426 12.2502 41.95 13.4095 42.2204 15.4217C42.4968 17.477 42.5 20.1864 42.5 24C42.5 27.8136 42.4968 30.523 42.2204 32.5784C41.95 34.5904 41.4426 35.7498 40.5962 36.5962C39.7498 37.4426 38.5904 37.95 36.5784 38.2204C34.523 38.4968 31.8136 38.5 28 38.5H20C16.1864 38.5 13.477 38.4968 11.4217 38.2204C9.40952 37.95 8.25022 37.4426 7.4038 36.5962C6.55738 35.7498 6.05004 34.5904 5.77952 32.5784C5.50318 30.523 5.5 27.8136 5.5 24C5.5 20.1864 5.50318 17.477 5.77952 15.4217C6.05004 13.4095 6.55738 12.2502 7.4038 11.4038ZM12.8321 14.7519C12.1428 14.2924 11.2115 14.4787 10.7519 15.168C10.2924 15.8572 10.4787 16.7885 11.168 17.2481L23.168 25.248C23.6718 25.584 24.3282 25.584 24.832 25.248L36.832 17.2481C37.5214 16.7885 37.7076 15.8572 37.248 15.168C36.7886 14.4787 35.8572 14.2924 35.168 14.7519L24 22.1972L12.8321 14.7519Z" fill="#19348D"/>
</svg>
