<svg width="48" height="48" viewBox="0 0 48 48" fill="none" xmlns="http://www.w3.org/2000/svg">
<path d="M24 42C33.9411 42 42 33.9411 42 24C42 14.0589 33.9411 6 24 6C14.0589 6 6 14.0589 6 24C6 33.9411 14.0589 42 24 42Z" fill="#19348D" fill-opacity="0.2"/>
<path fill-rule="evenodd" clip-rule="evenodd" d="M21.9202 8.50112C22.6832 7.77486 23.3836 7.5 24 7.5C24.6164 7.5 25.3168 7.77486 26.0798 8.50112C26.8508 9.23474 27.6132 10.3672 28.2862 11.8813C28.6798 12.7669 29.0326 13.7605 29.335 14.8437C27.6352 14.6191 25.8444 14.5 24 14.5C22.1556 14.5 20.3648 14.6191 18.665 14.8437C18.9673 13.7605 19.3202 12.7669 19.7139 11.8813C20.3868 10.3672 21.1492 9.23474 21.9202 8.50112ZM15.4237 15.4237C15.8251 13.6733 16.3477 12.0686 16.9724 10.6629C17.2978 9.93086 17.656 9.2411 18.0468 8.60662C13.7228 10.28 10.28 13.7228 8.60662 18.0468C9.2411 17.656 9.93086 17.2978 10.6629 16.9724C12.0686 16.3477 13.6733 15.8251 15.4237 15.4237ZM7.5 24C7.5 24.0004 7.5 24.0008 7.5 24.001C7.50032 24.6174 7.77528 25.3172 8.50112 26.0798C9.23474 26.8508 10.3672 27.6132 11.8813 28.2862C12.7669 28.6798 13.7605 29.0326 14.8437 29.335C14.6191 27.6352 14.5 25.8444 14.5 24C14.5 22.1556 14.6191 20.3648 14.8437 18.665C13.7605 18.9673 12.7669 19.3202 11.8813 19.7139C10.3672 20.3868 9.23474 21.1492 8.50112 21.9202C7.77486 22.6832 7.5 23.3836 7.5 24ZM17.9781 30.022C17.6708 28.1606 17.5 26.1322 17.5 24C17.5 21.8678 17.6708 19.8393 17.9781 17.9781C19.8393 17.6708 21.8678 17.5 24 17.5C26.1322 17.5 28.1606 17.6708 30.022 17.9781C30.3292 19.8393 30.5 21.8678 30.5 24C30.5 26.1322 30.3292 28.1606 30.022 30.022C28.1606 30.3292 26.1322 30.5 24 30.5C21.8678 30.5 19.8393 30.3292 17.9781 30.022ZM15.4237 32.5762C13.6733 32.175 12.0686 31.6524 10.6629 31.0276C9.93086 30.7022 9.2411 30.344 8.60662 29.9532C10.28 34.2772 13.7228 37.72 18.0468 39.3934C17.656 38.759 17.2978 38.0692 16.9724 37.3372C16.3477 35.9314 15.8251 34.3268 15.4237 32.5762ZM18.665 33.1564C20.3648 33.381 22.1556 33.5 24 33.5C25.8444 33.5 27.6352 33.381 29.335 33.1564C29.0326 34.2396 28.6798 35.233 28.2862 36.1188C27.6132 37.6328 26.8508 38.7652 26.0798 39.4988C25.3168 40.2252 24.6164 40.5 24 40.5C23.3836 40.5 22.6832 40.2252 21.9202 39.4988C21.1492 38.7652 20.3868 37.6328 19.7139 36.1188C19.3202 35.233 18.9673 34.2396 18.665 33.1564ZM32.5762 32.5762C32.175 34.3268 31.6524 35.9314 31.0276 37.3372C30.7022 38.0692 30.344 38.759 29.9532 39.3934C34.2772 37.72 37.72 34.2772 39.3934 29.9532C38.759 30.344 38.0692 30.7022 37.3372 31.0276C35.9314 31.6524 34.3268 32.175 32.5762 32.5762ZM43.5 24C43.5 13.2304 34.7696 4.5 24 4.5C13.2304 4.5 4.5 13.2304 4.5 24C4.5 34.7696 13.2304 43.5 24 43.5C34.7696 43.5 43.5 34.7696 43.5 24ZM39.3934 18.0468C38.759 17.656 38.0692 17.2978 37.3372 16.9724C35.9314 16.3477 34.3268 15.8251 32.5762 15.4237C32.175 13.6733 31.6524 12.0686 31.0276 10.6629C30.7022 9.93086 30.344 9.2411 29.9532 8.60662C34.2772 10.28 37.72 13.7228 39.3934 18.0468ZM33.1564 18.665C34.2396 18.9673 35.233 19.3202 36.1188 19.7139C37.6328 20.3868 38.7652 21.1492 39.4988 21.9202C40.2252 22.6832 40.5 23.3836 40.5 24C40.5 24.6164 40.2252 25.3168 39.4988 26.0798C38.7652 26.8508 37.6328 27.6132 36.1188 28.2862C35.233 28.6798 34.2396 29.0326 33.1564 29.335C33.381 27.6352 33.5 25.8444 33.5 24C33.5 22.1556 33.381 20.3648 33.1564 18.665Z" fill="#19348D"/>
</svg>
