<svg width="48" height="48" viewBox="0 0 48 48" fill="none" xmlns="http://www.w3.org/2000/svg">
<path d="M25.09 5.03992L13.9794 17.7378C13.0006 18.8565 12.5112 19.4158 12.2556 20.096C12 20.7762 12 21.5194 12 23.0058V32C12 35.7712 12 37.6568 13.1716 38.8284C14.3431 40 16.2288 40 20 40H29.8896C32.8284 40 34.2976 40 35.3728 39.1788C36.448 38.3576 36.8346 36.94 37.6078 34.105L39.2442 28.105C40.5098 23.4644 41.1426 21.144 39.9418 19.572C38.7412 18 36.336 18 31.526 18H26L30.1808 8.24478C31.042 6.23534 29.568 4 27.3818 4C26.5036 4 25.6684 4.37906 25.09 5.03992Z" fill="#19348D" fill-opacity="0.19"/>
<path fill-rule="evenodd" clip-rule="evenodd" d="M26.219 6.02768C26.5124 5.69234 26.9362 5.5 27.3818 5.5C28.4912 5.5 29.239 6.63426 28.802 7.6539L24.6212 17.4091C24.4226 17.8726 24.4702 18.4048 24.7478 18.8257C25.0254 19.2467 25.4958 19.5 26 19.5H31.526C33.9786 19.5 35.6524 19.5038 36.8718 19.6809C38.0532 19.8526 38.4936 20.147 38.7498 20.4826C39.006 20.818 39.1742 21.3204 39.029 22.5052C38.879 23.7282 38.4424 25.344 37.797 27.7102L36.1606 33.7102C35.7646 35.1626 35.4994 36.125 35.2126 36.8354C34.9406 37.5088 34.7074 37.7994 34.4624 37.9868C34.2172 38.174 33.8754 38.3226 33.1542 38.4078C32.3932 38.4976 31.395 38.5 29.8896 38.5H20C18.072 38.5 16.7769 38.4968 15.8108 38.367C14.8879 38.2428 14.4929 38.0284 14.2322 37.7678C13.9716 37.5072 13.7572 37.1122 13.6331 36.1892C13.5032 35.2232 13.5 33.928 13.5 32V23.0058C13.5 21.4094 13.5222 20.9898 13.6597 20.6236C13.7973 20.2576 14.0569 19.9271 15.1083 18.7256L26.219 6.02768ZM27.3818 2.5C26.0712 2.5 24.8242 3.06578 23.9612 4.05216L12.8505 16.7501L12.7061 16.9149C11.868 17.8711 11.205 18.6275 10.8514 19.5684C10.4979 20.5094 10.4988 21.5152 10.4999 22.7868L10.5 23.0058V32V32.104C10.4999 33.901 10.4999 35.3994 10.6598 36.589C10.8286 37.8446 11.2 38.9782 12.1109 39.889C13.0219 40.8 14.1555 41.1714 15.411 41.3402C16.6006 41.5002 18.099 41.5 19.896 41.5H20H29.8896H29.9764C31.3718 41.5 32.5484 41.5 33.506 41.387C34.523 41.2668 35.4534 41.0048 36.2832 40.3708C37.1132 39.737 37.6108 38.9082 37.9944 37.9588C38.3554 37.0648 38.665 35.9296 39.032 34.5834L39.0548 34.4996L40.6912 28.4996L40.7226 28.3844C41.3288 26.1622 41.827 24.3354 42.0066 22.8702C42.194 21.342 42.0784 19.8981 41.1338 18.6615C40.1894 17.425 38.8268 16.9335 37.303 16.7121C35.8424 16.4999 33.9488 16.4999 31.6454 16.5H31.526H28.2748L31.5596 8.83566C32.845 5.83642 30.6448 2.5 27.3818 2.5ZM7.5 20C7.5 19.1716 6.82842 18.5 6 18.5C5.17158 18.5 4.5 19.1716 4.5 20V40C4.5 40.8284 5.17158 41.5 6 41.5C6.82842 41.5 7.5 40.8284 7.5 40V20Z" fill="#19348D"/>
</svg>
