<svg width="48" height="48" viewBox="0 0 48 48" fill="none" xmlns="http://www.w3.org/2000/svg">
<path fill-rule="evenodd" clip-rule="evenodd" d="M20 40C20 42.2092 21.7908 44 24 44C26.2092 44 28 42.2092 28 40V37.4202C28.931 37.1432 29.8216 36.7718 30.6604 36.3172L32.4852 38.1422C34.0474 39.7042 36.58 39.7042 38.1422 38.1422C39.7042 36.58 39.7042 34.0474 38.1422 32.4852L36.3172 30.6604C36.7718 29.8216 37.1432 28.931 37.4202 28H40C42.2092 28 44 26.2092 44 24C44 21.7908 42.2092 20 40 20H37.4202C37.1432 19.0689 36.7718 18.1784 36.3172 17.3396L38.1422 15.5147C39.7042 13.9526 39.7042 11.42 38.1422 9.85786C36.58 8.29576 34.0474 8.29576 32.4852 9.85786L30.6604 11.6828C29.8216 11.2282 28.931 10.8569 28 10.5798V8C28 5.79086 26.2092 4 24 4C21.7908 4 20 5.79086 20 8V10.5798C19.0689 10.8569 18.1784 11.2282 17.3396 11.6828L15.5147 9.85786C13.9526 8.29576 11.42 8.29576 9.85786 9.85786C8.29576 11.42 8.29576 13.9526 9.85786 15.5147L11.6828 17.3396C11.2282 18.1784 10.8569 19.0689 10.5798 20H8C5.79086 20 4 21.7908 4 24C4 26.2092 5.79086 28 8 28H10.5798C10.8569 28.931 11.2282 29.8216 11.6828 30.6604L9.85786 32.4852C8.29576 34.0474 8.29576 36.58 9.85786 38.1422C11.42 39.7042 13.9526 39.7042 15.5147 38.1422L17.3396 36.3172C18.1784 36.7718 19.0689 37.1432 20 37.4202V40ZM24 30C27.3138 30 30 27.3138 30 24C30 20.6862 27.3138 18 24 18C20.6862 18 18 20.6862 18 24C18 27.3138 20.6862 30 24 30Z" fill="#19348D" fill-opacity="0.19"/>
<path fill-rule="evenodd" clip-rule="evenodd" d="M24 2.5C20.9624 2.5 18.5 4.96244 18.5 8V9.50456C18.2089 9.6151 17.9219 9.73412 17.6395 9.86136L16.5754 8.7972C14.4275 6.64932 10.9451 6.64932 8.7972 8.7972C6.64932 10.9451 6.64932 14.4275 8.7972 16.5754L9.86136 17.6395C9.73412 17.9219 9.6151 18.2089 9.50458 18.5H8C4.96244 18.5 2.5 20.9624 2.5 24C2.5 27.0376 4.96244 29.5 8 29.5H9.50458C9.6151 29.7912 9.73412 30.078 9.86136 30.3604L8.7972 31.4246C6.64932 33.5726 6.64932 37.055 8.7972 39.2028L9.85786 38.1422L8.7972 39.2028C10.9451 41.3506 14.4275 41.3506 16.5754 39.2028L17.6395 38.1386C17.9219 38.2658 18.2089 38.385 18.5 38.4954V40C18.5 43.0376 20.9624 45.5 24 45.5C27.0376 45.5 29.5 43.0376 29.5 40V38.4954C29.7912 38.3848 30.078 38.2658 30.3604 38.1386L31.4246 39.2028C33.5726 41.3506 37.055 41.3506 39.2028 39.2028C41.3506 37.055 41.3506 33.5726 39.2028 31.4246L38.1386 30.3604C38.2658 30.078 38.385 29.7912 38.4954 29.5H40C43.0376 29.5 45.5 27.0376 45.5 24C45.5 20.9624 43.0376 18.5 40 18.5H38.4954C38.385 18.2089 38.2658 17.9219 38.1386 17.6395L39.2028 16.5754C41.3506 14.4275 41.3506 10.9451 39.2028 8.7972L38.1422 9.85786L39.2028 8.7972C37.055 6.64932 33.5726 6.64932 31.4246 8.7972L30.3604 9.86134C30.078 9.73412 29.7912 9.6151 29.5 9.50458V8C29.5 4.96244 27.0376 2.5 24 2.5ZM21.5 8C21.5 6.61928 22.6194 5.5 24 5.5C25.3808 5.5 26.5 6.61928 26.5 8V10.5798C26.5 11.2434 26.936 11.8281 27.5722 12.0174C28.4026 12.2646 29.197 12.5959 29.9458 13.0016C30.5294 13.3179 31.2516 13.2128 31.721 12.7434L33.546 10.9185C34.5222 9.94222 36.1052 9.94222 37.0814 10.9185C38.0578 11.8948 38.0578 13.4777 37.0814 14.4541L35.2566 16.2789C34.7872 16.7484 34.6822 17.4706 34.9984 18.0543C35.4042 18.803 35.7354 19.5974 35.9826 20.4278C36.1718 21.064 36.7566 21.5 37.4202 21.5H40C41.3808 21.5 42.5 22.6192 42.5 24C42.5 25.3808 41.3808 26.5 40 26.5H37.4202C36.7566 26.5 36.1718 26.936 35.9826 27.5722C35.7354 28.4026 35.4042 29.197 34.9984 29.9458C34.6822 30.5294 34.7872 31.2516 35.2566 31.721L37.0814 33.546C38.0578 34.5222 38.0578 36.1052 37.0814 37.0814C36.1052 38.0578 34.5222 38.0578 33.546 37.0814L31.721 35.2566C31.2516 34.7872 30.5294 34.6822 29.9458 34.9984C29.197 35.4042 28.4026 35.7354 27.5722 35.9826C26.9362 36.1718 26.5 36.7566 26.5 37.4202V40C26.5 41.3808 25.3808 42.5 24 42.5C22.6194 42.5 21.5 41.3808 21.5 40V37.4202C21.5 36.7566 21.064 36.1718 20.428 35.9826C19.5975 35.7354 18.803 35.4042 18.0543 34.9984C17.4706 34.6822 16.7484 34.7872 16.279 35.2566L14.4541 37.0814C13.4777 38.0578 11.8948 38.0578 10.9185 37.0814C9.94222 36.1052 9.94222 34.5222 10.9185 33.546L12.7434 31.721C13.2129 31.2516 13.3179 30.5294 13.0016 29.9458C12.5959 29.197 12.2646 28.4026 12.0174 27.5722C11.8281 26.936 11.2434 26.5 10.5798 26.5H8C6.61928 26.5 5.5 25.3808 5.5 24C5.5 22.6192 6.61928 21.5 8 21.5H10.5798C11.2434 21.5 11.8281 21.064 12.0174 20.4278C12.2646 19.5974 12.5959 18.803 13.0016 18.0543C13.3179 17.4706 13.2129 16.7484 12.7434 16.279L10.9185 14.4541C9.94222 13.4777 9.94222 11.8948 10.9185 10.9185C11.8948 9.94222 13.4777 9.94222 14.4541 10.9185L16.279 12.7434C16.7484 13.2129 17.4706 13.3179 18.0543 13.0016C18.803 12.5959 19.5975 12.2646 20.428 12.0174C21.064 11.8281 21.5 11.2434 21.5 10.5798V8ZM19.5 24C19.5 21.5148 21.5148 19.5 24 19.5C26.4852 19.5 28.5 21.5148 28.5 24C28.5 26.4852 26.4852 28.5 24 28.5C21.5148 28.5 19.5 26.4852 19.5 24ZM24 16.5C19.8579 16.5 16.5 19.8579 16.5 24C16.5 28.1422 19.8579 31.5 24 31.5C28.1422 31.5 31.5 28.1422 31.5 24C31.5 19.8579 28.1422 16.5 24 16.5Z" fill="#19348D"/>
</svg>
