<svg width="207" height="55" viewBox="0 0 207 55" fill="none" xmlns="http://www.w3.org/2000/svg">
<g clip-path="url(#clip0)">
<path d="M55.7915 20.8366H58.5577V30.6441C58.5577 33.1948 59.3122 36.6076 65.8505 36.6076C67.7023 36.5884 69.5506 36.4444 71.383 36.1765V28.7401C71.0237 28.7401 70.413 28.776 69.8382 28.776H69.5149C68.9206 28.8203 68.3311 28.6409 67.8623 28.273C67.7092 28.0831 67.5954 27.8645 67.5276 27.6302C67.4597 27.3958 67.4392 27.1503 67.4671 26.9079V20.8366H71.6344V13.1486H67.4671V5.74805H58.5577V13.1486H55.7915V20.8366Z" fill="black"/>
<path d="M12.7893 12.394C5.49653 12.394 0 17.675 0 24.6804C0 31.6858 5.49653 36.9668 12.7893 36.9668C20.0821 36.9668 25.5786 31.6858 25.5786 24.6804C25.5786 17.675 20.0821 12.394 12.7893 12.394ZM12.7893 28.9914C11.9367 28.9914 11.1032 28.7386 10.3942 28.2649C9.6853 27.7912 9.13275 27.1179 8.80646 26.3301C8.48017 25.5424 8.3948 24.6756 8.56114 23.8394C8.72748 23.0031 9.13807 22.235 9.74097 21.6321C10.3439 21.0292 11.112 20.6186 11.9483 20.4522C12.7845 20.2859 13.6513 20.3713 14.4391 20.6976C15.2268 21.0238 15.9001 21.5764 16.3738 22.2853C16.8475 22.9943 17.1003 23.8278 17.1003 24.6804C17.1003 25.8237 16.6461 26.9203 15.8376 27.7287C15.0292 28.5372 13.9327 28.9914 12.7893 28.9914Z" fill="black"/>
<path d="M36.8589 41.709V33.9492C36.8589 33.9492 38.9066 36.9669 43.6487 36.9669C49.6841 36.9669 54.2466 31.6859 54.2466 24.6805C54.2466 17.6751 49.6841 12.3941 43.6487 12.3941C42.2926 12.3756 40.9501 12.667 39.7236 13.246C38.4972 13.825 37.4191 14.6763 36.5715 15.7352C36.7408 14.9441 36.8251 14.1372 36.823 13.3282V13.1486H27.9136V41.709H36.8589ZM40.9903 28.9915C40.1376 28.9915 39.3042 28.7387 38.5952 28.265C37.8863 27.7913 37.3337 27.118 37.0074 26.3302C36.6811 25.5425 36.5958 24.6757 36.7621 23.8395C36.9285 23.0032 37.339 22.2351 37.9419 21.6322C38.5448 21.0293 39.313 20.6187 40.1493 20.4523C40.9855 20.286 41.8523 20.3714 42.64 20.6977C43.4278 21.0239 44.1011 21.5765 44.5748 22.2854C45.0485 22.9944 45.3013 23.8279 45.3013 24.6805C45.3013 25.8238 44.8471 26.9204 44.0386 27.7288C43.2302 28.5373 42.1336 28.9915 40.9903 28.9915Z" fill="black"/>
<path d="M201.503 25.6145C200.416 25.6145 199.354 25.9369 198.45 26.5408C197.546 27.1448 196.841 28.0032 196.425 29.0076C196.009 30.012 195.9 31.1171 196.112 32.1834C196.325 33.2496 196.848 34.229 197.617 34.9977C198.385 35.7664 199.365 36.2899 200.431 36.5019C201.497 36.714 202.602 36.6052 203.607 36.1892C204.611 35.7731 205.47 35.0686 206.074 34.1647C206.678 33.2608 207 32.1981 207 31.111C206.994 29.655 206.413 28.2602 205.384 27.2307C204.354 26.2011 202.959 25.6202 201.503 25.6145Z" fill="#00C0F3"/>
<path d="M81.9448 0C80.8577 0 79.795 0.322366 78.8911 0.926332C77.9872 1.5303 77.2827 2.38874 76.8666 3.3931C76.4506 4.39746 76.3418 5.50263 76.5539 6.56885C76.7659 7.63507 77.2894 8.61446 78.0581 9.38316C78.8268 10.1519 79.8062 10.6754 80.8725 10.8874C81.9387 11.0995 83.0438 10.9907 84.0482 10.5747C85.0526 10.1586 85.911 9.45414 86.515 8.55024C87.1189 7.64634 87.4413 6.58364 87.4413 5.49653C87.4356 4.04051 86.8547 2.64574 85.8251 1.61617C84.7956 0.586596 83.4008 0.00567657 81.9448 0" fill="black"/>
<path d="M86.4354 36.1764V13.1125H74.7598V20.8364H77.526V36.1764H86.4354Z" fill="black"/>
<path d="M104.075 36.2123H112.984V21.986L113.02 21.9142C113.324 21.488 113.722 21.137 114.183 20.8879C114.644 20.6389 115.155 20.4984 115.678 20.4772C116.936 20.4772 118.265 21.1957 118.265 23.1715V36.2123H127.174V20.3694C127.139 15.4117 123.043 12.7892 118.984 12.7892C117.584 12.7628 116.198 13.0604 114.933 13.6587C113.668 14.257 112.558 15.1397 111.691 16.238L111.439 16.5254L111.26 16.2021C109.93 14.0107 107.631 12.7892 104.865 12.7892C103.668 12.8076 102.489 13.0797 101.405 13.5875C100.322 14.0953 99.3581 14.8273 98.5781 15.7351C98.706 14.9387 98.778 14.1345 98.7937 13.3281V13.1125H89.8843V36.1764H98.8296V21.9501L98.8655 21.8782C99.1699 21.4521 99.5677 21.101 100.028 20.852C100.489 20.6029 101.001 20.4625 101.524 20.4412C102.781 20.4412 104.111 21.1597 104.111 23.1356V36.2123H104.075Z" fill="black"/>
<path d="M170.5 36.2123H179.409V21.986L179.445 21.9142C179.75 21.488 180.147 21.137 180.608 20.8879C181.069 20.6389 181.58 20.4984 182.104 20.4772C183.361 20.4772 184.69 21.1957 184.69 23.1715V36.2123H193.6V20.3694C193.564 15.4117 189.468 12.7892 185.409 12.7892C184.01 12.7628 182.623 13.0604 181.358 13.6587C180.093 14.257 178.983 15.1397 178.116 16.238L177.865 16.5254L177.685 16.2021C176.356 14.0107 174.057 12.7892 171.29 12.7892C170.094 12.8076 168.914 13.0797 167.831 13.5875C166.747 14.0953 165.783 14.8273 165.003 15.7351C165.131 14.9387 165.203 14.1345 165.219 13.3281V13.1125H156.31V36.1764H165.219V21.9501L165.255 21.8782C165.559 21.4521 165.957 21.101 166.418 20.852C166.879 20.6029 167.39 20.4625 167.913 20.4412C169.171 20.4412 170.5 21.1597 170.5 23.1356V36.2123Z" fill="black"/>
<path d="M130.228 26.8C130.228 31.5062 133.821 36.5716 141.688 36.5716C149.556 36.5716 153.184 31.6499 153.256 26.8V13.1125H144.347V25.5785C144.347 27.6622 142.91 28.3807 141.688 28.3807C140.467 28.3807 139.137 27.6622 139.137 25.5785V13.1125H130.228V26.8Z" fill="black"/>
</g>
<defs>
<clipPath id="clip0">
<rect width="207" height="54.4983" fill="white"/>
</clipPath>
</defs>
</svg>
