<svg width="48" height="48" viewBox="0 0 48 48" fill="none" xmlns="http://www.w3.org/2000/svg">
<path d="M36 6H12C7.58172 6 4 9.58172 4 14V34C4 38.4183 7.58172 42 12 42H36C40.4183 42 44 38.4183 44 34V14C44 9.58172 40.4183 6 36 6Z" fill="#19348D" fill-opacity="0.19"/>
<path fill-rule="evenodd" clip-rule="evenodd" d="M20 4.5H19.8872H19.8871C16.2116 4.49998 13.3004 4.49994 11.022 4.80628C8.6771 5.12154 6.7792 5.78576 5.28248 7.2825C3.78576 8.77922 3.12152 10.6771 2.80626 13.022C2.49994 15.3004 2.49996 18.2116 2.5 21.8872V22V26V26.1128C2.49996 29.7884 2.49994 32.6996 2.80626 34.978C3.12152 37.3228 3.78576 39.2208 5.28248 40.7176C6.77922 42.2142 8.6771 42.8784 11.022 43.1938C13.3004 43.5 16.2116 43.5 19.8871 43.5H19.8872H20H28H28.1128H28.113C31.7884 43.5 34.6996 43.5 36.978 43.1938C39.3228 42.8784 41.2208 42.2142 42.7176 40.7176C44.2142 39.2208 44.8784 37.3228 45.1938 34.978C45.5 32.6996 45.5 29.7884 45.5 26.1128V26V22V21.8872V21.887C45.5 18.2116 45.5 15.3004 45.1938 13.022C44.8784 10.6771 44.2142 8.77922 42.7176 7.2825C41.2208 5.78576 39.3228 5.12154 36.978 4.80628C34.6996 4.49994 31.7884 4.49998 28.1128 4.5H28H20ZM7.4038 9.40382C8.25022 8.5574 9.40952 8.05006 11.4217 7.77952C13.477 7.5032 16.1864 7.5 20 7.5H28C31.8136 7.5 34.523 7.5032 36.5784 7.77952C38.5904 8.05006 39.7498 8.5574 40.5962 9.40382C41.4426 10.2502 41.95 11.4095 42.2204 13.4217C42.4968 15.477 42.5 18.1864 42.5 22V26C42.5 29.8136 42.4968 32.523 42.2204 34.5784C41.95 36.5904 41.4426 37.7498 40.5962 38.5962C39.7498 39.4426 38.5904 39.95 36.5784 40.2204C34.523 40.4968 31.8136 40.5 28 40.5H20C16.1864 40.5 13.477 40.4968 11.4217 40.2204C9.40952 39.95 8.25022 39.4426 7.4038 38.5962C6.55738 37.7498 6.05004 36.5904 5.77952 34.5784C5.50318 32.523 5.5 29.8136 5.5 26V22C5.5 18.1864 5.50318 15.477 5.77952 13.4217C6.05004 11.4095 6.55738 10.2502 7.4038 9.40382ZM29.248 17.168C28.9698 16.7507 28.5016 16.5 28 16.5C27.4984 16.5 27.0302 16.7507 26.752 17.168L20 27.2958L17.2481 23.168C16.9699 22.7506 16.5015 22.5 16 22.5H12C11.1716 22.5 10.5 23.1716 10.5 24C10.5 24.8284 11.1716 25.5 12 25.5H15.1972L18.7519 30.832C19.0301 31.2494 19.4985 31.5 20 31.5C20.5016 31.5 20.9698 31.2494 21.248 30.832L28 20.7042L30.752 24.832C31.0302 25.2494 31.4984 25.5 32 25.5H36C36.8284 25.5 37.5 24.8284 37.5 24C37.5 23.1716 36.8284 22.5 36 22.5H32.8028L29.248 17.168Z" fill="#19348D"/>
</svg>
