<svg width="155" height="53" viewBox="0 0 155 53" fill="none" xmlns="http://www.w3.org/2000/svg">
<g clip-path="url(#clip0)">
<path d="M-1.8418 25.629V54.3088H77.5917H157.025V25.629V-3.05083H77.5917H-1.8418V25.629ZM156.348 -2.27744C156.606 -1.9552 156.671 5.68202 156.638 25.9835L156.542 53.8255L77.9461 53.9221C20.1031 53.9544 -0.746163 53.8899 -1.06841 53.6321C-1.4551 53.3099 -1.51955 48.4762 -1.51955 25.4679C-1.51955 10.1935 -1.42288 -2.40634 -1.29398 -2.50301C-1.19731 -2.63191 34.2497 -2.72858 77.4305 -2.72858C143.233 -2.72858 156.026 -2.66413 156.348 -2.27744Z" fill="#5A2CA0"/>
<path d="M12.7561 0.816193C9.27584 1.55736 6.18229 3.78085 5.11888 6.29436C3.95879 9.13012 4.21659 13.2549 5.86004 17.6052C7.08457 20.8599 6.95567 20.7954 10.4359 19.2809C16.623 16.574 21.7145 15.4461 29.0939 15.1239C33.4765 14.9305 37.9879 15.4139 40.2436 16.3162C41.8226 16.9607 42.9505 16.9929 42.9505 16.4129C42.9505 15.7362 36.3444 9.25902 33.1864 6.87441C30.0929 4.52201 26.1615 2.3952 23.1324 1.46068C20.5867 0.687296 14.9796 0.332825 12.7561 0.816193Z" fill="#5A2CA0"/>
<path d="M100.697 12.7715C95.412 13.4482 91.5772 15.3172 87.9036 19.023C84.939 21.9877 83.1022 25.0168 81.4587 29.5927C79.203 35.9087 78.7197 42.4825 80.2987 45.7372C81.3621 47.9284 83.8434 49.9586 86.3891 50.8286C88.2903 51.4409 89.386 51.5376 96.0242 51.6665C102.985 51.7631 103.5 51.7309 103.79 51.1831C104.274 50.2808 106.497 42.6758 106.658 41.4191L106.819 40.2912L102.147 40.3879C96.9265 40.5168 95.8953 40.259 94.993 38.5189C94.3486 37.2621 94.3808 36.2631 95.1864 33.3952C96.5076 28.6582 98.3444 25.6935 100.761 24.4045C101.954 23.76 105.756 23.7278 109.269 24.3401C110.557 24.5334 111.685 24.6623 111.782 24.5656C112.04 24.3401 114.811 14.6083 114.811 13.996C114.811 13.2548 114.328 13.0937 110.203 12.7392C106.078 12.3848 103.597 12.3848 100.697 12.7715Z" fill="#5A2CA0"/>
<path d="M51.683 13.4804C51.2641 13.6738 50.6518 14.2216 50.3296 14.6727C49.6851 15.5428 38.9543 51.0542 39.2121 51.3442C39.3732 51.5054 53.0042 51.4409 53.1653 51.2798C53.2298 51.2476 53.9065 48.9596 54.7443 46.2205C57.3867 37.3266 57.6123 36.7465 58.3212 36.6499C58.6757 36.5854 59.3202 36.8432 59.7391 37.1977C60.4803 37.8099 60.5125 37.9711 60.8025 44.5771L61.0925 51.3765L68.2142 51.4731C72.1456 51.5376 75.4002 51.5376 75.4969 51.4731C75.5614 51.4087 75.3036 48.2507 74.9491 44.416C74.4013 39.1312 74.079 37.1655 73.5957 36.1665C73.2412 35.4253 72.9834 34.8453 73.0156 34.8453C74.0146 34.5875 76.7214 32.8151 78.1071 31.4939C80.6528 29.1093 81.6518 26.7569 81.8774 22.8578C82.0707 18.9586 81.8129 17.7985 80.4273 16.2517C79.0416 14.705 77.5593 13.9316 75.2391 13.416C72.7578 12.9004 52.7142 12.9326 51.683 13.4804ZM67.5697 22.1166C68.6331 22.6 68.8264 23.18 68.3431 24.6946C67.8919 26.2736 66.7641 27.4336 65.4751 27.6914C64.025 27.9815 60.7381 27.917 60.5447 27.627C60.3836 27.3692 61.6726 22.7933 62.1237 22.1166C62.3815 21.6332 66.5707 21.6655 67.5697 22.1166Z" fill="#5A2CA0"/>
<path d="M119.161 13.3837C117.969 13.867 117.131 15.156 116.422 17.5729C116.035 18.8941 113.619 27.0147 111.073 35.5864C108.495 44.1581 106.465 51.2153 106.561 51.3119C106.723 51.4731 120.289 51.5375 120.418 51.3764C120.45 51.3119 121.643 47.4128 122.996 42.708C124.382 38.0032 125.638 34.0396 125.799 33.8785C126.122 33.524 126.218 34.0718 126.863 39.0022C127.121 41.129 127.604 44.8026 127.894 47.155L128.442 51.4086L135.854 51.3442L143.265 51.2475L148.872 32.5895C151.934 22.3099 154.447 13.7059 154.447 13.4803C154.447 13.1581 153.287 13.0614 149.13 13.0614C143.265 13.0614 142.266 13.287 141.461 14.9305C141.203 15.4138 140.01 19.1196 138.786 23.1799C137.11 28.787 136.53 30.366 136.337 29.786C136.208 29.367 135.66 25.5968 135.112 21.4398C134.565 17.2828 134.049 13.6737 133.984 13.4481C133.888 13.1581 132.18 13.0614 126.831 13.0937C122.964 13.0937 119.516 13.2225 119.161 13.3837Z" fill="#5A2CA0"/>
<path d="M24.7436 16.284C20.5544 16.7673 18.1698 17.2829 14.754 18.443C5.11884 21.7621 0.414062 25.7258 0.414062 30.495C0.414062 31.3328 0.542961 32.3962 0.736308 32.8474C1.18745 34.0397 3.28205 36.2632 3.99099 36.2632C4.9255 36.2632 9.9203 34.8453 11.8538 34.0075C12.2082 33.8463 13.8195 33.2663 15.3985 32.6863C18.0087 31.7517 26.0003 28.4326 31.833 25.8547C34.701 24.5979 43.2405 20.2476 43.8205 19.7964C45.0128 18.7975 43.8527 17.863 40.2114 16.9285C37.2145 16.1551 28.9972 15.8006 24.7436 16.284Z" fill="#00D400"/>
</g>
<defs>
<clipPath id="clip0">
<rect width="155" height="52.2037" fill="white"/>
</clipPath>
</defs>
</svg>
