<svg width="196" height="41" viewBox="0 0 196 41" fill="none" xmlns="http://www.w3.org/2000/svg">
<g clip-path="url(#clip0)">
<path d="M182.877 12.0066V31.9234L196 21.9677L182.877 12.0066Z" fill="#0076BC"/>
<path d="M32.5754 37.879C32.5754 39.4871 31.3233 40.9487 29.5045 40.9487H26.4348V18.4689C26.7922 12.4886 28.9667 7.72208 38.0512 7.39697C41.9805 7.44633 44.8316 9.00859 46.5163 10.979C48.3218 13.327 49.0962 16.2443 49.0962 19.9135C49.0962 23.7049 48.1929 26.7748 46.3862 29.1226C44.5807 31.4101 42.2641 32.5532 39.4353 32.5532C35.1923 32.5532 33.1314 30.7869 32.5709 30.4553C32.5711 30.6604 32.5754 37.879 32.5754 37.879ZM42.8661 20.1845C42.8661 17.8377 42.4358 12.8718 37.63 12.8718C33.0664 12.8718 32.5754 17.7169 32.5754 20.1845C32.5754 26.4326 36.1259 27.2262 37.8103 27.2262C42.1734 27.2264 42.8661 22.5989 42.8661 20.1845Z" fill="#77787B"/>
<path d="M3.59201 29.9137C5.62627 31.6509 8.68127 32.5173 12.7541 32.5173C16.707 32.5173 19.762 31.681 21.9171 30.0034C24.0724 28.2067 25.1517 25.6919 25.1517 22.4586C25.1517 20.9624 24.8582 19.5817 24.1633 18.3253C23.5268 17.1755 22.4461 16.0905 21.1396 15.4362C20.3104 15.0226 19.8057 14.8422 18.7859 14.5283C17.6855 14.191 12.2047 12.6959 11.6513 12.5502C8.59843 11.806 6.65955 10.7896 6.64604 8.98287C6.80408 5.48957 10.0596 5.21048 11.8573 5.21048C13.711 5.21048 15.1802 5.60041 16.2574 6.37831C18.1917 7.88359 17.9765 9.79544 17.9765 9.79544H24.0722C23.9524 6.80075 22.8742 4.37324 20.839 2.51623C18.8631 0.839592 16.0468 0 12.3955 0C8.50207 0 5.53872 0.809236 3.50232 2.42536C1.46591 4.10317 0.448292 6.40847 0.448292 9.34264C0.457301 13.1117 2.24381 15.3342 3.86228 16.3494C4.84504 16.9377 7.07886 17.84 9.97033 18.415L12.3988 18.944C16.6107 19.9706 19.0282 21.2708 18.953 23.3564C18.9072 24.6128 18.4746 25.5732 17.5151 26.2312C16.6385 26.8307 15.1479 27.2173 13.2942 27.2173C11.1961 27.2173 9.55102 26.8004 8.35401 25.961C7.21536 25.2426 6.52481 23.9851 6.28725 22.1886H0C0.179395 25.6012 1.37621 28.1777 3.59201 29.9137Z" fill="#77787B"/>
<path d="M61.4848 12.6959C65.3459 12.6432 65.9454 15.9303 66.0655 17.5476H56.9034C56.9034 17.5476 56.8261 12.7821 61.4848 12.6959ZM61.7551 27.1591C60.1985 27.0806 57.2352 26.7758 56.9639 21.59L72.5298 21.5934C72.5321 21.4341 72.5298 19.7273 72.5343 19.725C72.4266 15.8169 71.4885 12.9052 69.6583 10.7198C67.6812 8.56353 64.8973 7.48657 61.3043 7.48657C57.8928 7.48657 55.2266 8.59506 53.3112 10.8095C51.4542 12.9648 50.5249 15.9604 50.5249 19.7922C50.5249 23.8054 51.4822 26.8886 53.4009 29.0439C55.3175 31.2605 57.9825 32.368 61.394 32.368C64.2104 32.368 66.5449 31.681 68.4008 30.3024C70.2568 28.9856 71.5231 27.0626 72.1823 24.5463L66.7737 24.5475C65.9781 26.8048 63.9439 27.2688 61.7551 27.1591Z" fill="#77787B"/>
<path d="M166.003 31.9523H159.775V16.605C159.775 14.8354 159.048 12.4515 155.532 12.4515C152.083 12.4515 151.38 15.1614 151.38 16.605V31.9525H145.059V17.8692C145.059 13.7774 146.273 11.277 148.264 9.65425C150.237 8.04596 152.762 7.51815 155.351 7.39712C156.735 7.39712 158.091 7.54851 159.414 7.84776C160.738 8.15152 161.942 8.751 163.026 9.65444C163.93 8.87321 164.996 8.31525 166.231 7.98348C167.463 7.65387 168.74 7.40417 170.067 7.39732C177.776 7.35697 180.869 10.8861 181.126 12.0181C181.126 12.035 181.128 31.9527 181.128 31.9527H177.56C176.658 31.9527 174.492 31.3397 174.492 28.8842V16.605C174.507 14.8657 173.898 12.4515 170.247 12.4515C166.634 12.4515 166.003 15.1614 166.003 16.605V31.9523Z" fill="#77787B"/>
<path d="M89.6962 24.5556H95.6014C95.6014 24.5556 93.9986 32.3683 85.0778 32.3683C76.1588 32.3683 73.9631 25.2113 73.9631 20.5075C73.9631 15.8048 74.7982 7.77026 84.7311 7.48883C93.9091 7.35096 95.422 15.3027 95.422 15.3027H89.1336C89.1336 15.3027 88.5251 12.6151 84.7817 12.6993C81.0396 12.7845 80.061 16.2992 80.061 19.6389C80.061 22.9799 80.8926 27.1592 85.0484 27.1592C88.9992 27.2801 89.3478 25.143 89.6962 24.5556Z" fill="#77787B"/>
<path d="M122.459 8.02002H128.746V23.2901C128.746 23.2901 128.52 27.4201 132.88 27.4223C136.991 27.4246 137.096 23.7273 137.099 23.4662V10.9834C137.099 10.9834 137.311 8.02022 140.037 8.02022H143.301C143.301 8.02022 143.297 22.0677 143.301 22.202C143.255 22.9752 144.123 32.3694 132.88 32.3314C121.741 32.3314 122.53 22.8275 122.459 22.2682V8.02002Z" fill="#77787B"/>
<path d="M103.222 14.4106H106.914L106.911 8.11528H103.229V4.07185C103.229 2.96336 102.612 1.01782 100.264 1.01782H97.0312V27.4292C97.0312 30.183 98.0996 31.8305 100.413 31.8305C100.439 31.8305 103.125 31.8326 103.223 31.8326L103.222 14.4106Z" fill="#77787B"/>
<path d="M113.495 31.8764V19.5694C113.495 17.7741 113.912 16.4561 114.753 15.6177C115.59 14.7794 116.877 14.3592 118.615 14.3592H120.679V7.98202C120.679 7.98202 117.427 7.90133 115.066 8.61069C113.549 9.06681 112.207 9.68882 111.07 10.5854C109.869 11.5447 108.928 12.8179 108.239 14.4038C107.551 15.9908 107.207 17.952 107.207 20.2876V31.876H113.495V31.8764Z" fill="#77787B"/>
</g>
<defs>
<clipPath id="clip0">
<rect width="196" height="40.9487" fill="white"/>
</clipPath>
</defs>
</svg>
