<svg width="177" height="73" viewBox="0 0 177 73" fill="none" xmlns="http://www.w3.org/2000/svg">
<g clip-path="url(#clip0)">
<path d="M7.75166 57.7962C5.39682 57.7962 3.0892 57.5098 1.21322 57.0238L1.50436 52.0756C3.32953 52.7469 5.87628 53.2778 8.23232 53.2778C11.7906 53.2778 14.6739 51.788 14.6739 48.2805C14.6739 41.4522 0.494629 44.3397 0.494629 33.8561C0.494629 28.2814 4.86834 24.3901 12.4165 24.3901C14.3379 24.3901 16.3084 24.6281 18.28 24.9635L17.9901 29.6277C16.1177 29.052 14.0498 28.7148 12.1278 28.7148C8.09004 28.7148 6.02334 30.5878 6.02334 33.2804C6.02334 39.7705 20.2038 37.369 20.2038 47.5076C20.2008 53.4703 15.4917 57.7962 7.75166 57.7962Z" fill="black"/>
<path d="M32.8408 57.6486C31.4963 57.6486 30.4866 57.6032 29.2359 57.3622V67.7633H24.094V33.4258H28.9484C28.9484 34.6777 28.8993 36.5997 28.659 37.8952H28.7559C30.101 34.8654 32.8408 32.9434 36.4941 32.9434C42.1657 32.9434 45.2894 36.9787 45.2894 44.1909C45.29 52.6059 40.8218 57.6486 32.8408 57.6486ZM35.149 37.1754C31.3032 37.1754 29.2359 41.6932 29.2359 45.7745V53.1344C30.3425 53.471 31.5435 53.6151 32.9855 53.6151C37.0705 53.6151 39.8587 51.1149 39.8587 44.6727C39.8587 39.8674 38.3695 37.1754 35.149 37.1754Z" fill="black"/>
<path d="M61.7834 37.9902C57.0259 37.1263 54.7183 40.4437 54.7183 47.6063V57.3138H49.5728V33.4258H54.4785C54.4785 34.7685 54.3315 36.8878 53.9955 38.713H54.0923C55.1511 35.4919 57.5538 32.5093 62.0255 32.9433L61.7834 37.9902Z" fill="black"/>
<path d="M69.127 29.8693C67.3001 29.8693 65.8091 28.4261 65.8091 26.6458C65.8091 24.8697 67.3001 23.4265 69.127 23.4265C70.905 23.4265 72.3954 24.8212 72.3954 26.6458C72.3954 28.4261 70.905 29.8693 69.127 29.8693ZM71.6738 57.3138H66.5325V33.4258H71.6738V57.3138Z" fill="black"/>
<path d="M92.8292 57.3137V41.9322C92.8292 38.9532 92.0078 37.2243 89.271 37.2243C85.6661 37.2243 83.0195 41.0175 83.0195 45.7744V57.3137H77.877V33.4257H82.7809C82.7809 34.6775 82.6841 36.7412 82.4438 38.0863L82.4934 38.1312C83.8863 35.0583 86.772 32.9426 90.8092 32.9426C96.2398 32.9426 97.9233 36.3568 97.9233 40.5871V57.3137H92.8292Z" fill="black"/>
<path d="M112.094 57.7449C106.998 57.7449 105.459 55.7756 105.459 50.443V37.4139H100.895V33.4258H105.459V25.8298L110.554 24.4351V33.4258H116.85V37.4139H110.604V48.8545C110.604 52.414 111.325 53.3729 113.727 53.3729C114.784 53.3729 115.939 53.2289 116.851 52.9885V57.2188C115.458 57.5099 113.679 57.7449 112.094 57.7449Z" fill="black"/>
<path d="M140.214 50.697C147.221 41.6781 152.732 31.0828 152.732 23.4737C152.732 19.4969 149.883 16.7212 146.169 14.6121C146.242 22.8806 143.378 42.2694 140.214 50.697Z" fill="#FFDD05"/>
<path d="M117.238 72.9202C133.66 67.4267 157.466 54.6278 174.022 43.1932C175.412 42.2372 176.495 41.3489 176.495 39.7951C176.495 37.0935 171.547 33.4725 169.146 32.0305C156.118 45.5731 130.19 65.8652 117.238 72.9202Z" fill="#FFDD05"/>
<path d="M132.471 61.4166C142.597 54.4167 157.308 41.2459 162.286 34.0797C163.46 32.3939 164.329 31.417 164.329 29.6528C164.329 26.7599 160.955 24.6418 158.528 23.167C152.713 36.8716 139.649 53.9366 132.471 61.4166Z" fill="#FFDD05"/>
<path d="M141.697 41.9991C143.007 33.345 142.237 22.8973 140.565 16.3445C139.656 12.7761 136.439 8.74853 133.462 7.4895C137.364 18.5625 140.713 34.3308 141.697 41.9991Z" fill="#FFDD05"/>
<path d="M138.813 29.8585C135.745 21.5667 128.099 4.28224 116.852 0C124.173 8.08084 135.036 24.1152 138.813 29.8585Z" fill="#FFDD05"/>
</g>
<defs>
<clipPath id="clip0">
<rect width="176" height="72.9201" fill="white" transform="translate(0.494629)"/>
</clipPath>
</defs>
</svg>
