<svg width="48" height="48" viewBox="0 0 48 48" fill="none" xmlns="http://www.w3.org/2000/svg">
<path d="M10 18C10 12.3431 10 9.51472 11.7574 7.75736C13.5147 6 16.3431 6 22 6H24.6666C25.9128 6 26.5358 6 27 6.26794C27.304 6.44348 27.5566 6.69596 27.732 7C28 7.4641 28 8.08718 28 9.33334C28 11.8256 28 13.0718 28.5358 14C28.887 14.6081 29.392 15.113 30 15.4641C30.9282 16 32.1744 16 34.6666 16C35.9128 16 36.5358 16 37 16.2679C37.304 16.4435 37.5566 16.696 37.732 17C38 17.4641 38 18.0872 38 19.3333V30C38 35.6568 38 38.4852 36.2426 40.2426C34.4852 42 31.6568 42 26 42H22C16.3431 42 13.5147 42 11.7574 40.2426C10 38.4852 10 35.6568 10 30V18Z" fill="#19348D" fill-opacity="0.19"/>
<path fill-rule="evenodd" clip-rule="evenodd" d="M26.5 7.50685C26.0812 7.50147 25.5966 7.50017 25.0294 7.50017H22C19.1292 7.50017 17.1269 7.50335 15.6162 7.70647C14.1487 7.90377 13.3715 8.26467 12.818 8.81819C12.2645 9.37171 11.9036 10.1489 11.7063 11.6164C11.5032 13.1271 11.5 15.1293 11.5 18.0002V30.0002C11.5 32.871 11.5032 34.8732 11.7063 36.384C11.9036 37.8514 12.2645 38.6286 12.818 39.1822C13.3715 39.7356 14.1487 40.0966 15.6162 40.2938C17.1269 40.497 19.1292 40.5002 22 40.5002H26C28.8708 40.5002 30.873 40.497 32.3838 40.2938C33.8514 40.0966 34.6284 39.7356 35.182 39.1822C35.7356 38.6286 36.0964 37.8514 36.2938 36.384C36.4968 34.8732 36.5 32.871 36.5 30.0002V18.9707C36.5 18.4035 36.4988 17.9191 36.4934 17.5003H36L35.896 17.5003C34.099 17.5004 32.6006 17.5004 31.411 17.3405C30.1554 17.1717 29.0218 16.8004 28.111 15.8894C27.2 14.9785 26.8286 13.8449 26.6598 12.5893C26.4998 11.3997 26.5 9.90129 26.5 8.10433V8.00035V7.50685ZM36.0344 14.5003C35.6862 13.837 35.0336 13.155 33.4246 11.5461L32.454 10.5755C30.8452 8.96675 30.1632 8.31407 29.5 7.96593V8.00035C29.5 9.92837 29.5032 11.2235 29.633 12.1895C29.7572 13.1125 29.9716 13.5075 30.2322 13.7681C30.4928 14.0287 30.8878 14.2432 31.8108 14.3673C32.7768 14.4971 34.072 14.5003 36 14.5003H36.0344ZM30.3848 5.07107C29.002 4.49833 27.4902 4.49905 25.3146 4.50009L25.0294 4.50017H22H21.8902C19.1551 4.50013 16.9504 4.50009 15.2165 4.73321C13.4163 4.97525 11.9005 5.49303 10.6967 6.69687C9.49286 7.90071 8.97508 9.41645 8.73304 11.2167C8.49992 12.9506 8.49996 15.1552 8.5 17.8904V18.0002V30.0002V30.1098C8.49996 32.845 8.49992 35.0498 8.73304 36.7836C8.97508 38.5838 9.49286 40.0996 10.6967 41.3034C11.9005 42.5072 13.4163 43.025 15.2165 43.267C16.9504 43.5002 19.1551 43.5002 21.8902 43.5002H22H26H26.1098C28.845 43.5002 31.0496 43.5002 32.7836 43.267C34.5838 43.025 36.0994 42.5072 37.3034 41.3034C38.5072 40.0996 39.025 38.5838 39.267 36.7836C39.5 35.0498 39.5 32.845 39.5 30.11V30.1098V30.0002V18.9707V18.6855V18.6855C39.5012 16.51 39.5018 14.9981 38.929 13.6153C38.3564 12.2326 37.2868 11.164 35.7476 9.62639L35.546 9.42479L34.5754 8.45423L34.3738 8.25249C32.8362 6.71341 31.7676 5.64383 30.3848 5.07107ZM23.0606 23.061C23.6464 22.4752 23.6464 21.5254 23.0606 20.9396C22.4748 20.3538 21.5252 20.3538 20.9394 20.9396L16.9393 24.9396C16.3536 25.5254 16.3536 26.4752 16.9393 27.061L20.9394 31.061C21.5252 31.6468 22.4748 31.6468 23.0606 31.061C23.6464 30.4752 23.6464 29.5254 23.0606 28.9396L20.1214 26.0004L23.0606 23.061ZM24.9394 27.061L27.8786 30.0004L24.9394 32.9396C24.3536 33.5254 24.3536 34.4752 24.9394 35.061C25.5252 35.6468 26.4748 35.6468 27.0606 35.061L31.0606 31.061C31.6464 30.4752 31.6464 29.5254 31.0606 28.9396L27.0606 24.9396C26.4748 24.3538 25.5252 24.3538 24.9394 24.9396C24.3536 25.5254 24.3536 26.4752 24.9394 27.061Z" fill="#19348D"/>
</svg>
