<svg width="42" height="42" viewBox="0 0 42 42" fill="none" xmlns="http://www.w3.org/2000/svg">
<path d="M34.5758 15.8023L33.4885 11.4534C32.5336 7.63369 32.0562 5.72385 30.632 4.61192C29.2079 3.5 27.2393 3.5 23.302 3.5H18.6984C14.7611 3.5 12.7925 3.5 11.3684 4.61192C9.94424 5.72385 9.46677 7.63369 8.51184 11.4534L7.42464 15.8023C6.42369 19.806 5.92323 21.8078 6.97419 23.1539C8.02517 24.5 10.0886 24.5 14.2156 24.5H27.7848C31.9118 24.5 33.9752 24.5 35.0263 23.1539C36.0771 21.8078 35.5766 19.806 34.5758 15.8023Z" fill="#19348D" fill-opacity="0.19"/>
<path fill-rule="evenodd" clip-rule="evenodd" d="M18.6982 2.1875H18.6163C16.7172 2.18747 15.1753 2.18745 13.9349 2.33578C12.6416 2.49043 11.531 2.8196 10.5604 3.5774C9.58984 4.33522 9.00114 5.33283 8.53745 6.54997C8.0927 7.7174 7.71876 9.21326 7.25821 11.0556L7.23835 11.135L4.81269 20.8376L4.79007 20.9283H4.79005C4.39395 22.5124 4.16703 23.4201 4.05223 24.3525C3.93743 25.2851 3.93747 26.2206 3.9375 27.8535V27.947V31.5V31.591C3.93745 33.1634 3.93741 34.4745 4.07734 35.5154C4.22506 36.614 4.54998 37.6059 5.34706 38.4029C6.14413 39.2 7.13603 39.525 8.23466 39.6727C9.27553 39.8125 10.5867 39.8125 12.159 39.8125H12.25H29.75H29.841C31.4134 39.8125 32.7245 39.8125 33.7654 39.6727C34.864 39.525 35.8559 39.2 36.6529 38.4029C37.45 37.6059 37.775 36.614 37.9227 35.5154C38.0627 34.4745 38.0625 33.1634 38.0625 31.591V31.5V27.947V27.8537C38.0625 26.2206 38.0625 25.2851 37.9477 24.3525C37.8331 23.4201 37.6061 22.5125 37.2101 20.9284L37.2099 20.9283L37.1873 20.8376L34.7617 11.135L34.7419 11.0556C34.2813 9.21326 33.9073 7.7174 33.4626 6.54997C32.9989 5.33283 32.4102 4.33522 31.4396 3.5774C30.4689 2.8196 29.3584 2.49043 28.0651 2.33578C26.8247 2.18745 25.2828 2.18747 23.3837 2.1875H23.3018H18.6982ZM12.1759 5.64645C12.6294 5.29233 13.2152 5.06553 14.2466 4.94221C15.313 4.81469 16.6976 4.8125 18.6982 4.8125H23.3018C25.3024 4.8125 26.687 4.81469 27.7534 4.94221C28.7849 5.06553 29.3706 5.29233 29.824 5.64645C30.2776 6.00056 30.6397 6.51382 31.0095 7.48451C31.3919 8.48817 31.7298 9.83085 32.2151 11.7717L34.6407 21.4743C34.8199 22.1909 34.9563 22.7379 35.0609 23.1875H6.93908C7.04382 22.7379 7.18016 22.1909 7.35933 21.4743L9.78497 11.7717C10.2702 9.83085 10.6081 8.48817 10.9905 7.48451C11.3603 6.51382 11.7224 6.00056 12.1759 5.64645ZM6.57851 25.8125C6.56317 26.3382 6.5625 26.9983 6.5625 27.947V31.5C6.5625 33.187 6.56528 34.3203 6.67895 35.1656C6.78752 35.9732 6.97515 36.3188 7.20321 36.5468C7.43125 36.7749 7.77688 36.9625 8.58443 37.0711C9.42975 37.1847 10.563 37.1875 12.25 37.1875H29.75C31.437 37.1875 32.5703 37.1847 33.4156 37.0711C34.2232 36.9625 34.5688 36.7749 34.7968 36.5468C35.0249 36.3188 35.2125 35.9732 35.3211 35.1656C35.4347 34.3203 35.4375 33.187 35.4375 31.5V27.947C35.4375 26.9983 35.4368 26.3382 35.4216 25.8125H6.57851ZM14 31.5C14 32.4665 13.2165 33.25 12.25 33.25C11.2835 33.25 10.5 32.4665 10.5 31.5C10.5 30.5335 11.2835 29.75 12.25 29.75C13.2165 29.75 14 30.5335 14 31.5ZM19.25 30.1875C18.5252 30.1875 17.9375 30.7752 17.9375 31.5C17.9375 32.2249 18.5252 32.8125 19.25 32.8125H29.75C30.4749 32.8125 31.0625 32.2249 31.0625 31.5C31.0625 30.7752 30.4749 30.1875 29.75 30.1875H19.25Z" fill="#19348D"/>
</svg>
