<svg width="48" height="48" viewBox="0 0 48 48" fill="none" xmlns="http://www.w3.org/2000/svg">
<path d="M6 17.6C6 14.2397 6 12.5595 6.65396 11.2761C7.2292 10.1471 8.14708 9.2292 9.27606 8.65396C10.5595 8 12.2397 8 15.6 8H32.4C35.7604 8 37.4404 8 38.724 8.65396C39.853 9.2292 40.7708 10.1471 41.346 11.2761C42 12.5595 42 14.2397 42 17.6V40L36.7026 37.3514C35.6948 36.8474 35.1908 36.5954 34.6626 36.4176C34.1934 36.2598 33.7108 36.1458 33.2206 36.0772C32.6688 36 32.1052 36 30.9784 36H15.6C12.2397 36 10.5595 36 9.27606 35.346C8.14708 34.7708 7.2292 33.853 6.65396 32.724C6 31.4404 6 29.7604 6 26.4V17.6Z" fill="#19348D" fill-opacity="0.19"/>
<path fill-rule="evenodd" clip-rule="evenodd" d="M15.6 6.5H15.5358C13.9101 6.49998 12.5989 6.49998 11.5371 6.58672C10.4438 6.67606 9.4835 6.86478 8.59508 7.31746C7.18386 8.0365 6.0365 9.18386 5.31746 10.5951C4.86478 11.4835 4.67606 12.4438 4.58672 13.5371C4.49998 14.5989 4.49998 15.9101 4.5 17.5358V17.6V26.4V26.4642C4.49998 28.0898 4.49998 29.4012 4.58672 30.463C4.67606 31.5562 4.86478 32.5164 5.31746 33.405C6.0365 34.8162 7.18386 35.9634 8.59508 36.6826C9.4835 37.1352 10.4438 37.324 11.5371 37.4132C12.5989 37.5 13.9101 37.5 15.5358 37.5H15.6H30.9784C32.1454 37.5 32.588 37.5034 33.0126 37.5628C33.4108 37.6186 33.803 37.7112 34.1842 37.8394C34.5908 37.9762 34.988 38.171 36.0318 38.693L41.3292 41.3416C41.7942 41.5742 42.3464 41.5492 42.7886 41.276C43.2308 41.0026 43.5 40.5198 43.5 40V17.6V17.5358C43.5 15.9101 43.5 14.5989 43.4132 13.5371C43.324 12.4438 43.1352 11.4835 42.6826 10.5951C41.9634 9.18386 40.8162 8.0365 39.405 7.31746C38.5164 6.86478 37.5562 6.67606 36.463 6.58672C35.4012 6.49998 34.0898 6.49998 32.4642 6.5H32.4H15.6ZM9.95704 9.99048C10.3521 9.7892 10.8736 9.65094 11.7814 9.57676C12.7066 9.50116 13.8951 9.5 15.6 9.5H32.4C34.105 9.5 35.2934 9.50116 36.2186 9.57676C37.1264 9.65094 37.648 9.7892 38.043 9.99048C38.8896 10.4219 39.578 11.1103 40.0096 11.957C40.2108 12.3521 40.349 12.8736 40.4232 13.7814C40.4988 14.7066 40.5 15.8951 40.5 17.6V37.573L37.3734 36.0096L37.2786 35.9622H37.2784C36.361 35.5034 35.7692 35.2074 35.1408 34.996C34.5838 34.8086 34.0106 34.6732 33.4286 34.5918C32.772 34.4998 32.1104 34.4998 31.0846 34.5H30.9784H15.6C13.8951 34.5 12.7066 34.4988 11.7814 34.4232C10.8736 34.349 10.3521 34.2108 9.95704 34.0096C9.11032 33.578 8.4219 32.8896 7.99048 32.043C7.7892 31.648 7.65094 31.1264 7.57676 30.2186C7.50116 29.2934 7.5 28.105 7.5 26.4V17.6C7.5 15.8951 7.50116 14.7066 7.57676 13.7814C7.65094 12.8736 7.7892 12.3521 7.99048 11.957C8.4219 11.1103 9.11032 10.4219 9.95704 9.99048ZM16 24C17.1046 24 18 23.1046 18 22C18 20.8954 17.1046 20 16 20C14.8954 20 14 20.8954 14 22C14 23.1046 14.8954 24 16 24ZM26 22C26 23.1046 25.1046 24 24 24C22.8954 24 22 23.1046 22 22C22 20.8954 22.8954 20 24 20C25.1046 20 26 20.8954 26 22ZM32 24C33.1046 24 34 23.1046 34 22C34 20.8954 33.1046 20 32 20C30.8954 20 30 20.8954 30 22C30 23.1046 30.8954 24 32 24Z" fill="#19348D"/>
</svg>
