<svg width="48" height="48" viewBox="0 0 48 48" fill="none" xmlns="http://www.w3.org/2000/svg">
<path d="M24 32C28.4183 32 32 28.4183 32 24C32 19.5817 28.4183 16 24 16C19.5817 16 16 19.5817 16 24C16 28.4183 19.5817 32 24 32Z" fill="#19348D" fill-opacity="0.19"/>
<path fill-rule="evenodd" clip-rule="evenodd" d="M24 2.5C24.8284 2.5 25.5 3.17158 25.5 4V6.56338C33.9684 7.28226 40.7178 14.0316 41.4366 22.5H44C44.8284 22.5 45.5 23.1716 45.5 24C45.5 24.8284 44.8284 25.5 44 25.5H41.4366C40.7178 33.9684 33.9684 40.7178 25.5 41.4366V44C25.5 44.8284 24.8284 45.5 24 45.5C23.1716 45.5 22.5 44.8284 22.5 44V41.4366C14.0316 40.7178 7.28226 33.9684 6.56338 25.5H4C3.17158 25.5 2.5 24.8284 2.5 24C2.5 23.1716 3.17158 22.5 4 22.5H6.56338C7.28226 14.0316 14.0316 7.28226 22.5 6.56338V4C22.5 3.17158 23.1716 2.5 24 2.5ZM24 38.5C32.0082 38.5 38.5 32.0082 38.5 24C38.5 15.9919 32.0082 9.5 24 9.5C15.9919 9.5 9.5 15.9919 9.5 24C9.5 32.0082 15.9919 38.5 24 38.5ZM29 24C29 26.7614 26.7614 29 24 29C21.2386 29 19 26.7614 19 24C19 21.2386 21.2386 19 24 19C26.7614 19 29 21.2386 29 24ZM32 24C32 28.4182 28.4182 32 24 32C19.5817 32 16 28.4182 16 24C16 19.5817 19.5817 16 24 16C28.4182 16 32 19.5817 32 24Z" fill="#19348D"/>
</svg>
