<svg width="181" height="40" viewBox="0 0 181 40" fill="none" xmlns="http://www.w3.org/2000/svg">
<g clip-path="url(#clip0)">
<path d="M176.515 -0.00420761L166.703 21.0319L162.993 13.0506H158.985L165.076 26.1055H168.318L180.5 0.00775909H176.515V-0.00420761Z" fill="#CD040B"/>
<path d="M72.2694 3.80835H80.2429V10.8673H72.2694V3.80835ZM9.53697 39.0592H17.8656L26.9094 13.0516H18.9359L13.857 29.7624H13.7548L8.67589 13.0516H0.498047L9.53697 39.0592ZM38.7943 17.9797C41.5867 17.9797 43.518 20.0619 43.8245 23.1073H33.2094C33.8175 20.0132 35.491 17.9797 38.7943 17.9797ZM39.1981 34.0824C35.6954 34.0824 33.5597 31.7959 33.1559 28.2932H51.9002C51.9489 22.7035 50.4797 18.2375 47.3807 15.4451C45.1964 13.4116 42.3018 12.2975 38.6435 12.2975C30.8207 12.2975 25.3867 18.2424 25.3867 26.0116C25.3867 33.8343 30.5678 39.8278 39.1543 39.8278C42.404 39.8278 44.997 38.9619 47.1278 37.4878C49.4143 35.9164 51.0391 33.63 51.4964 31.3435H43.8781C43.1094 33.0656 41.5381 34.0824 39.1981 34.0824ZM53.7781 39.0592H61.7029V27.1208C61.7029 21.6867 64.9526 19.2981 69.9294 19.9597H70.0802V13.1051C69.6716 12.9543 69.2191 12.9008 68.4553 12.9008C65.3564 12.9008 63.2743 14.3213 61.4986 17.3716H61.3478V13.0516H53.7781V39.0592ZM72.2694 39.0592H80.2429V13.0516H72.2694V39.0592ZM82.4272 39.0592H104.674V32.8127H92.0743V32.6619L104.115 19.1521V13.0565H82.4272V19.3029H94.6186V19.4538L82.4272 33.0657V39.0592ZM118.743 34.0338C114.983 34.0338 113.003 30.8862 113.003 26.1089C113.003 21.2829 114.983 18.184 118.743 18.184C122.504 18.184 124.586 21.2829 124.586 26.1089C124.586 30.8813 122.504 34.0338 118.743 34.0338ZM118.797 12.3413C110.517 12.3413 104.981 18.2862 104.981 26.1089C104.981 33.8781 110.517 39.8716 118.797 39.8716C127.077 39.8716 132.613 33.8781 132.613 26.1089C132.613 18.2862 127.072 12.3413 118.797 12.3413ZM134.34 39.0592H142.265V24.5813C142.265 21.2781 144.196 18.943 147.038 18.943C149.781 18.943 151.202 20.8743 151.202 23.6181V39.0592H159.127V22.0954C159.127 16.3548 155.673 12.2927 150.083 12.2927C146.527 12.2927 144.041 13.8154 142.158 16.6127H142.007V13.0565H134.34V39.0592Z" fill="black"/>
</g>
<defs>
<clipPath id="clip0">
<rect width="180" height="39.8724" fill="white" transform="translate(0.494629)"/>
</clipPath>
</defs>
</svg>
