<svg width="48" height="48" viewBox="0 0 48 48" fill="none" xmlns="http://www.w3.org/2000/svg">
<path fill-rule="evenodd" clip-rule="evenodd" d="M24 42C33.9412 42 42 33.9412 42 24C42 14.0589 33.9412 6 24 6C14.0589 6 6 14.0589 6 24C6 33.9412 14.0589 42 24 42ZM19.9998 25.111C19.9998 31.6296 27.9998 31.6296 27.9998 25.111C27.9998 20.963 23.9998 18 23.9998 18C23.9998 18 19.9998 20.963 19.9998 25.111Z" fill="#19348D" fill-opacity="0.19"/>
<path fill-rule="evenodd" clip-rule="evenodd" d="M25.5 10V7.56726C28.9302 7.87638 32.0578 9.23534 34.559 11.3204L32.9396 12.9391C32.3536 13.5248 32.3534 14.4746 32.9392 15.0605C33.5248 15.6464 34.4746 15.6465 35.0604 15.0609L36.6802 13.4417C38.7648 15.9427 40.1236 19.07 40.4328 22.5H38C37.1716 22.5 36.5 23.1716 36.5 24C36.5 24.8284 37.1716 25.5 38 25.5H40.4328C40.1236 28.93 38.7648 32.0572 36.6802 34.5582L35.0604 32.9392C34.4746 32.3534 33.5248 32.3536 32.9392 32.9396C32.3534 33.5254 32.3536 34.4752 32.9396 35.0608L34.559 36.6796C31.6976 39.065 28.0164 40.5 24 40.5C19.9838 40.5 16.3027 39.065 13.4415 36.68L15.0612 35.0608C15.6471 34.4752 15.6473 33.5254 15.0616 32.9396C14.4759 32.3536 13.5262 32.3534 12.9403 32.9392L11.3202 34.5586C9.23524 32.0576 7.87638 28.9302 7.56726 25.5H10C10.8284 25.5 11.5 24.8284 11.5 24C11.5 23.1716 10.8284 22.5 10 22.5H7.56726C7.87638 19.0699 9.23522 15.9424 11.3201 13.4414L12.9393 15.0607C13.5251 15.6464 14.4749 15.6464 15.0607 15.0607C15.6464 14.4749 15.6464 13.5251 15.0607 12.9393L13.4414 11.3201C15.9424 9.23522 19.0699 7.87638 22.5 7.56726V10C22.5 10.8284 23.1716 11.5 24 11.5C24.8284 11.5 25.5 10.8284 25.5 10ZM24 4.5C34.7696 4.5 43.5 13.2304 43.5 24C43.5 34.7696 34.7696 43.5 24 43.5C13.2304 43.5 4.5 34.7696 4.5 24C4.5 13.2304 13.2304 4.5 24 4.5ZM23.9998 18L24.8926 16.7947C24.3622 16.4018 23.6372 16.4018 23.1068 16.7947L23.9998 18ZM24.8252 20.9328C24.5408 20.5748 24.2554 20.2632 23.9998 20.0062C23.7442 20.2632 23.4588 20.5748 23.1744 20.9328C22.2756 22.0648 21.4998 23.5176 21.4998 25.1112C21.4998 26.4272 21.898 27.267 22.3534 27.762C22.8144 28.2626 23.4116 28.5 23.9998 28.5C24.588 28.5 25.1854 28.2626 25.6462 27.762C26.1018 27.267 26.4998 26.4272 26.4998 25.1112C26.4998 23.5178 25.724 22.0648 24.8252 20.9328ZM29.4998 25.1112C29.4998 22.5564 28.2756 20.4538 27.1744 19.0672C26.614 18.3614 26.0558 17.8034 25.6364 17.4204C25.426 17.228 25.248 17.0776 25.1192 16.9726C25.0546 16.92 25.0022 16.8786 24.9638 16.8489L24.9168 16.8129L24.9018 16.8016L24.8964 16.7976L24.8944 16.796L24.8934 16.7953C24.893 16.795 24.8926 16.7947 23.9998 18C23.1068 16.7947 23.1064 16.795 23.106 16.7953L23.1052 16.796L23.103 16.7976L23.0976 16.8016L23.0826 16.813L23.0358 16.8489C22.9974 16.8786 22.9448 16.92 22.8804 16.9726C22.7514 17.0777 22.5736 17.2281 22.363 17.4204C21.9438 17.8034 21.3856 18.3614 20.8252 19.0672C19.724 20.4538 18.4998 22.5564 18.4998 25.1112C18.4998 27.0542 19.1017 28.659 20.1462 29.7936C21.1854 30.9226 22.588 31.5 23.9998 31.5C25.4116 31.5 26.8144 30.9226 27.8534 29.7936C28.898 28.659 29.4998 27.0542 29.4998 25.1112Z" fill="#19348D"/>
</svg>
